<svg xmlns="http://www.w3.org/2000/svg" version="1.1" xmlns:xlink="http://www.w3.org/1999/xlink" xmlns:svgjs="http://svgjs.com/svgjs" width="1440" height="560" preserveAspectRatio="none" viewBox="0 0 1440 560"><g mask="url(&quot;#SvgjsMask1006&quot;)" fill="none"><path d="M250.43 611.12C388.63 596.5 471.65 298.8 708.87 296.71 946.09 294.62 938.09 366.71 1167.31 366.71 1396.53 366.71 1509.81 296.91 1625.75 296.71" stroke="rgba(2, 8, 14, 1)" stroke-width="2"></path><path d="M749.46 586.46C877.01 580.88 949.12 381.35 1210.12 366.02 1471.12 350.69 1537.12 101.75 1670.78 91.62" stroke="rgba(2, 8, 14, 1)" stroke-width="2"></path><path d="M418.1 636.67C609.75 603.71 705.52 132.51 1008.87 130.68 1312.22 128.85 1441.24 356.29 1599.64 360.28" stroke="rgba(2, 8, 14, 1)" stroke-width="2"></path><path d="M806.86 561.66C923.97 512.47 872.03 150.69 1102.32 148.29 1332.61 145.89 1540.04 309.22 1693.24 310.69" stroke="rgba(2, 8, 14, 1)" stroke-width="2"></path><path d="M273.53 627.95C480.83 599.53 597.45 118.97 936.66 117.34 1275.88 115.71 1424.84 338.34 1599.8 341.34" stroke="rgba(2, 8, 14, 1)" stroke-width="2"></path></g><defs><mask id="SvgjsMask1006"><rect width="1440" height="560" fill="#ffffff"></rect></mask></defs></svg>