<svg xmlns="http://www.w3.org/2000/svg" version="1.1" xmlns:xlink="http://www.w3.org/1999/xlink" xmlns:svgjs="http://svgjs.com/svgjs" width="1440" height="560" preserveAspectRatio="none" viewBox="0 0 1440 560"><g mask="url(&quot;#SvgjsMask1010&quot;)" fill="none"><rect width="1440" height="560" x="0" y="0" fill="rgba(203, 213, 225, 1)"></rect><path d="M0,367.92C66.099,351.35,100.101,281.482,154.649,240.639C204.064,203.639,265.077,186.288,305.218,139.389C355.005,81.221,422.723,16.571,411.222,-59.125C399.709,-134.901,305.859,-163.966,250.996,-217.489C201.693,-265.588,169.764,-334.188,105.062,-357.809C38.89,-381.967,-32.722,-360.703,-101.665,-346.238C-176.111,-330.619,-269.646,-333.526,-311.959,-270.314C-354.866,-206.214,-309.786,-120.66,-304.156,-43.731C-299.831,15.368,-296.507,71.484,-282.725,129.116C-265.696,200.325,-269.982,285.82,-214.048,333.065C-157.681,380.675,-71.569,385.861,0,367.92" fill="#95a9c2"></path><path d="M1440 1077.953C1534.4180000000001 1063.357 1595.559 975.325 1664.215 908.885 1720.426 854.489 1769.288 796.345 1803.629 726.064 1838.747 654.192 1863.336 578.949 1864.51 498.96500000000003 1865.837 408.565 1862.257 313.041 1810.782 238.71499999999997 1757.084 161.17899999999997 1671.567 104.65199999999999 1578.98 86.67899999999997 1489.663 69.34100000000001 1405.438 119.44299999999998 1317.548 142.96800000000002 1227.115 167.173 1120.408 159.37 1055.47 226.80200000000002 989.966 294.822 989.446 399.89 979.677 493.81600000000003 970.2470000000001 584.484 967.581 675.751 999.9110000000001 760.982 1033.667 849.972 1089.089 930.23 1166.319 985.855 1246.038 1043.272 1342.909 1092.962 1440 1077.953" fill="#ffffff"></path></g><defs><mask id="SvgjsMask1010"><rect width="1440" height="560" fill="#ffffff"></rect></mask></defs></svg>