<svg xmlns="http://www.w3.org/2000/svg" version="1.1" xmlns:xlink="http://www.w3.org/1999/xlink" xmlns:svgjs="http://svgjs.com/svgjs" width="1440" height="560" preserveAspectRatio="none" viewBox="0 0 1440 560"><g mask="url(&quot;#SvgjsMask1014&quot;)" fill="none"><rect width="1440" height="560" x="0" y="0" fill="rgba(203, 213, 225, 1)"></rect><path d="M0,510.957C108.256,523.026,222.633,546.811,319.89,497.759C420.573,446.979,480.054,343.063,531.67,242.806C585.302,138.634,632.886,27.219,622.215,-89.461C611.274,-209.094,563.415,-331.032,472.055,-409.038C384.654,-483.664,255.073,-460.924,145.727,-496.3C32.173,-533.037,-65.055,-643.242,-182.261,-620.724C-299.924,-598.119,-379.75,-485.464,-442.37,-383.315C-498.894,-291.11,-520.018,-182.477,-517.196,-74.362C-514.674,22.262,-468.731,107.815,-427.269,195.127C-386.437,281.112,-353.663,374.621,-277.117,431.202C-198.222,489.52,-97.505,500.087,0,510.957" fill="#95a9c2"></path><path d="M1440 944.7719999999999C1510.532 935.98 1569.147 891.94 1625.419 848.517 1677.578 808.267 1733.968 766.053 1753.24 703.052 1771.769 642.482 1744.067 579.63 1726.268 518.841 1710.762 465.883 1687.612 417.986 1656.443 372.451 1621.622 321.579 1591.379 262.045 1534.394 238.52499999999998 1475.58 214.25 1409.783 231.981 1347.489 244.937 1280.347 258.901 1202.449 263.457 1159.0810000000001 316.582 1115.837 369.554 1139.796 447.822 1127.024 515.001 1113.4569999999999 586.361 1064.192 653.135 1081.692 723.634 1100.1 797.793 1157.263 858.6379999999999 1222.286 898.769 1286.711 938.53 1364.874 954.137 1440 944.7719999999999" fill="#ffffff"></path></g><defs><mask id="SvgjsMask1014"><rect width="1440" height="560" fill="#ffffff"></rect></mask></defs></svg>